<mxfile host="app.diagrams.net" modified="2023-04-10T08:13:50.818Z" agent="Mozilla/5.0 (Windows NT 10.0; Win64; x64) AppleWebKit/537.36 (KHTML, like Gecko) Chrome/112.0.0.0 Safari/537.36 Edg/112.0.1722.34" etag="kMxD9hyGhesT970LzHer" version="21.1.5" type="device">
  <diagram id="lNbwYLGy0MFPWkEubIG1" name="Page-1">
    <mxGraphModel dx="1562" dy="869" grid="1" gridSize="10" guides="1" tooltips="1" connect="1" arrows="1" fold="1" page="1" pageScale="1" pageWidth="850" pageHeight="1100" math="0" shadow="0">
      <root>
        <mxCell id="0" />
        <mxCell id="1" parent="0" />
        <mxCell id="fL3oOZ58w1N9pzdEm3di-23" value="" style="rounded=0;whiteSpace=wrap;html=1;" parent="1" vertex="1">
          <mxGeometry x="210" y="270" width="40" height="40" as="geometry" />
        </mxCell>
        <mxCell id="fL3oOZ58w1N9pzdEm3di-24" value="" style="rounded=0;whiteSpace=wrap;html=1;" parent="1" vertex="1">
          <mxGeometry x="250" y="270" width="40" height="40" as="geometry" />
        </mxCell>
        <mxCell id="fL3oOZ58w1N9pzdEm3di-25" value="" style="rounded=0;whiteSpace=wrap;html=1;" parent="1" vertex="1">
          <mxGeometry x="290" y="270" width="40" height="40" as="geometry" />
        </mxCell>
        <mxCell id="fL3oOZ58w1N9pzdEm3di-26" value="" style="rounded=0;whiteSpace=wrap;html=1;" parent="1" vertex="1">
          <mxGeometry x="330" y="270" width="40" height="40" as="geometry" />
        </mxCell>
        <mxCell id="fL3oOZ58w1N9pzdEm3di-27" value="t" style="rounded=0;whiteSpace=wrap;html=1;fontSize=22;" parent="1" vertex="1">
          <mxGeometry x="370" y="270" width="40" height="40" as="geometry" />
        </mxCell>
        <mxCell id="fL3oOZ58w1N9pzdEm3di-28" value="" style="rounded=0;whiteSpace=wrap;html=1;" parent="1" vertex="1">
          <mxGeometry x="410" y="270" width="40" height="40" as="geometry" />
        </mxCell>
        <mxCell id="fL3oOZ58w1N9pzdEm3di-29" value="" style="rounded=0;whiteSpace=wrap;html=1;" parent="1" vertex="1">
          <mxGeometry x="450" y="270" width="40" height="40" as="geometry" />
        </mxCell>
        <mxCell id="fL3oOZ58w1N9pzdEm3di-30" value="" style="rounded=0;whiteSpace=wrap;html=1;" parent="1" vertex="1">
          <mxGeometry x="490" y="270" width="40" height="40" as="geometry" />
        </mxCell>
        <mxCell id="fL3oOZ58w1N9pzdEm3di-31" value="s" style="rounded=0;whiteSpace=wrap;html=1;fontSize=22;" parent="1" vertex="1">
          <mxGeometry x="530" y="270" width="40" height="40" as="geometry" />
        </mxCell>
        <mxCell id="fL3oOZ58w1N9pzdEm3di-32" value="" style="rounded=0;whiteSpace=wrap;html=1;" parent="1" vertex="1">
          <mxGeometry x="570" y="270" width="40" height="40" as="geometry" />
        </mxCell>
        <mxCell id="fL3oOZ58w1N9pzdEm3di-33" value="" style="rounded=0;whiteSpace=wrap;html=1;" parent="1" vertex="1">
          <mxGeometry x="610" y="270" width="40" height="40" as="geometry" />
        </mxCell>
        <mxCell id="fL3oOZ58w1N9pzdEm3di-34" value="" style="rounded=0;whiteSpace=wrap;html=1;" parent="1" vertex="1">
          <mxGeometry x="650" y="270" width="40" height="40" as="geometry" />
        </mxCell>
        <mxCell id="fL3oOZ58w1N9pzdEm3di-35" value="" style="rounded=0;whiteSpace=wrap;html=1;" parent="1" vertex="1">
          <mxGeometry x="690" y="270" width="40" height="40" as="geometry" />
        </mxCell>
        <mxCell id="fL3oOZ58w1N9pzdEm3di-36" value="b" style="rounded=0;whiteSpace=wrap;html=1;fontSize=22;" parent="1" vertex="1">
          <mxGeometry x="730" y="270" width="40" height="40" as="geometry" />
        </mxCell>
        <mxCell id="fL3oOZ58w1N9pzdEm3di-37" value="" style="rounded=0;whiteSpace=wrap;html=1;" parent="1" vertex="1">
          <mxGeometry x="770" y="270" width="40" height="40" as="geometry" />
        </mxCell>
        <mxCell id="fL3oOZ58w1N9pzdEm3di-38" value="" style="rounded=0;whiteSpace=wrap;html=1;" parent="1" vertex="1">
          <mxGeometry x="810" y="270" width="40" height="40" as="geometry" />
        </mxCell>
        <mxCell id="fL3oOZ58w1N9pzdEm3di-39" value="15" style="text;html=1;strokeColor=none;fillColor=none;align=center;verticalAlign=middle;whiteSpace=wrap;rounded=0;fontSize=22;" parent="1" vertex="1">
          <mxGeometry x="180" y="230" width="60" height="30" as="geometry" />
        </mxCell>
        <mxCell id="fL3oOZ58w1N9pzdEm3di-40" value="0" style="text;html=1;strokeColor=none;fillColor=none;align=center;verticalAlign=middle;whiteSpace=wrap;rounded=0;fontSize=22;" parent="1" vertex="1">
          <mxGeometry x="820" y="230" width="60" height="30" as="geometry" />
        </mxCell>
        <mxCell id="fL3oOZ58w1N9pzdEm3di-41" value="m = 16" style="text;html=1;strokeColor=none;fillColor=none;align=center;verticalAlign=middle;whiteSpace=wrap;rounded=0;fontSize=22;" parent="1" vertex="1">
          <mxGeometry x="200" y="160" width="70" height="30" as="geometry" />
        </mxCell>
        <mxCell id="fL3oOZ58w1N9pzdEm3di-42" value="S = 8" style="text;html=1;strokeColor=none;fillColor=none;align=center;verticalAlign=middle;whiteSpace=wrap;rounded=0;fontSize=22;" parent="1" vertex="1">
          <mxGeometry x="200" y="100" width="60" height="30" as="geometry" />
        </mxCell>
        <mxCell id="fL3oOZ58w1N9pzdEm3di-43" value="B = 64" style="text;html=1;strokeColor=none;fillColor=none;align=center;verticalAlign=middle;whiteSpace=wrap;rounded=0;fontSize=22;" parent="1" vertex="1">
          <mxGeometry x="195" y="130" width="80" height="30" as="geometry" />
        </mxCell>
        <mxCell id="fL3oOZ58w1N9pzdEm3di-44" value="s = 3" style="text;html=1;strokeColor=none;fillColor=none;align=center;verticalAlign=middle;whiteSpace=wrap;rounded=0;fontSize=22;" parent="1" vertex="1">
          <mxGeometry x="395" y="100" width="60" height="30" as="geometry" />
        </mxCell>
        <mxCell id="fL3oOZ58w1N9pzdEm3di-45" value="b = 6" style="text;html=1;strokeColor=none;fillColor=none;align=center;verticalAlign=middle;whiteSpace=wrap;rounded=0;fontSize=22;" parent="1" vertex="1">
          <mxGeometry x="395" y="130" width="60" height="30" as="geometry" />
        </mxCell>
        <mxCell id="fL3oOZ58w1N9pzdEm3di-46" value="5" style="text;html=1;strokeColor=none;fillColor=none;align=center;verticalAlign=middle;whiteSpace=wrap;rounded=0;fontSize=22;" parent="1" vertex="1">
          <mxGeometry x="580" y="230" width="60" height="30" as="geometry" />
        </mxCell>
        <mxCell id="fL3oOZ58w1N9pzdEm3di-47" value="8" style="text;html=1;strokeColor=none;fillColor=none;align=center;verticalAlign=middle;whiteSpace=wrap;rounded=0;fontSize=22;" parent="1" vertex="1">
          <mxGeometry x="460" y="230" width="60" height="30" as="geometry" />
        </mxCell>
        <mxCell id="fL3oOZ58w1N9pzdEm3di-48" value="t = 16 - (3 + 6) = 7" style="text;html=1;strokeColor=none;fillColor=none;align=center;verticalAlign=middle;whiteSpace=wrap;rounded=0;fontSize=22;" parent="1" vertex="1">
          <mxGeometry x="330" y="160" width="190" height="30" as="geometry" />
        </mxCell>
      </root>
    </mxGraphModel>
  </diagram>
</mxfile>
